<svg width="141" height="30" viewBox="0 0 141 30" fill="none" xmlns="http://www.w3.org/2000/svg">
<path fill-rule="evenodd" clip-rule="evenodd" d="M18.8479 1.47279L6.24128 7.35136C2.79432 8.95871 1.30301 13.056 2.91036 16.503C4.5177 19.95 8.61503 21.4413 12.062 19.8339L12.2769 19.7337L14.4098 13.8064L10.1726 15.7822C8.96338 16.3461 7.52595 15.8229 6.96206 14.6136L6.94547 14.5773C6.4087 13.3757 6.93344 11.9613 8.13062 11.4031L16.7151 7.40001L18.8479 1.47279Z" fill="url(#paint0_linear_245_17852)"/>
<path d="M17.8008 10.1356C21.8658 7.94037 26.4186 9.46217 28.026 12.9091C29.6333 16.3561 28.142 20.4534 24.695 22.0608L11.0148 28.4967L13.1477 22.5695L22.8057 18.0091C23.9909 17.4564 24.5171 16.0646 24.0066 14.8709L23.9908 14.8348L23.9743 14.7985C23.4104 13.5892 21.9729 13.066 20.7637 13.6299L15.453 16.163L17.5858 10.2359L17.8008 10.1356Z" fill="url(#paint1_linear_245_17852)"/>
<mask id="mask0_245_17852" style="mask-type:luminance" maskUnits="userSpaceOnUse" x="11" y="9" width="18" height="20">
<path d="M17.8008 10.1356C21.8658 7.94037 26.4186 9.46217 28.026 12.9091C29.6333 16.3561 28.142 20.4534 24.695 22.0608L11.0148 28.4967L13.1477 22.5695L22.8057 18.0091C23.9909 17.4564 24.5171 16.0646 24.0066 14.8709L23.9908 14.8348L23.9743 14.7985C23.4104 13.5892 21.9729 13.066 20.7637 13.6299L15.453 16.163L17.5858 10.2359L17.8008 10.1356Z" fill="white"/>
</mask>
<g mask="url(#mask0_245_17852)">
</g>
<path fill-rule="evenodd" clip-rule="evenodd" d="M53.2905 10.5956V8.27344H42.5876L42.4833 8.27446C40.0582 8.32211 38.1094 10.0285 38.1094 12.1265C38.1094 14.2546 40.1143 15.9797 42.5876 15.9797H50.0094L50.0835 15.9809C51.116 16.0144 51.941 16.7451 51.941 17.6417C51.941 18.5595 51.0762 19.3036 50.0094 19.3036H39.4588V21.6258H50.0094L50.1142 21.6248C52.6232 21.5768 54.6399 19.8119 54.6399 17.6417C54.6399 15.4413 52.5668 13.6575 50.0094 13.6575H42.5876L42.5142 13.6562C41.5655 13.6231 40.8082 12.9509 40.8082 12.1265C40.8082 11.281 41.6049 10.5956 42.5876 10.5956H53.2905ZM88.3756 8.27344V10.5956H82.3032V21.7561H79.6043V10.5956H73.5319V8.27344H88.3756ZM106.593 10.5956V8.27344H92.4239V10.5956H97.8216V21.7561H100.52V10.5956H106.593ZM128.858 8.27344H131.557V19.3036H141.003V21.6258H131.557H130.545H128.858V8.27344ZM111.99 8.27344L117.316 14.4369L122.818 8.27344L126.16 8.31788L118.657 16.7298L118.693 21.6182L116.038 21.6333L116.001 16.5806L108.617 8.31788L111.99 8.27344Z" fill="#141B31"/>
<rect x="57.2656" y="8.27344" width="12.0634" height="2.12884" fill="#141B31"/>
<rect x="57.2656" y="13.9512" width="12.0634" height="2.12884" fill="#141B31"/>
<rect x="57.2656" y="19.627" width="12.0634" height="2.12884" fill="#141B31"/>
<defs>
<linearGradient id="paint0_linear_245_17852" x1="-0.882114" y1="9.47873" x2="3.96164" y2="23.3014" gradientUnits="userSpaceOnUse">
<stop stop-color="#2FC5DB"/>
<stop offset="1" stop-color="#00D080"/>
</linearGradient>
<linearGradient id="paint1_linear_245_17852" x1="25.6886" y1="30.11" x2="29.5895" y2="4.87826" gradientUnits="userSpaceOnUse">
<stop stop-color="#3F4BEE"/>
<stop offset="1" stop-color="#00CBF2"/>
</linearGradient>
</defs>
</svg>
